<svg xmlns:dc="http://purl.org/dc/elements/1.1/" xmlns:cc="http://creativecommons.org/ns#"
    xmlns:rdf="http://www.w3.org/1999/02/22-rdf-syntax-ns#" xmlns:svg="http://www.w3.org/2000/svg"
    xmlns="http://www.w3.org/2000/svg" width="237.05299" height="66.400002" viewBox="0 0 237.05299 66.400002"
    fill="none" version="1.1" id="jhe-logo">
    <style>
        * {
            cursor: pointer;
        }

        .ani-fadeIn {
            animation: 1s normal forwards fadeIn;
        }

        .ani-fadeOut {
            animation: 1s reverse forwards fadeIn;
        }

        .ani-fadeInunright {
            animation: 1s normal forwards fadeInunright;
        }

        .ani-left {
            animation: 1s normal forwards left;
        }

        .ani-unleft {
            animation: 1s reverse forwards left;
        }

        .ani-right {
            animation: 1s normal forwards right;
        }

        .ani-unright {
            animation: 1s reverse forwards right;
        }

        @keyframes fadeIn {
            from {
                opacity: 0;
            }

            to {
                opacity: 1;
            }
        }

        @keyframes left {
            from {
                transform: none;
            }

            to {
                transform: translateX(-2%);
            }
        }

        @keyframes right {
            from {
                transform: none;
            }

            to {
                transform: translateX(2%);
            }
        }

        @keyframes fadeInunright {
            from {
                opacity: 0;
                transform: translateX(4%);
            }

            to {
                opacity: 1;
                transform: none;
            }
        }
    </style>
    <defs id="bolt-glow-filter">
        <filter style="color-interpolation-filters:sRGB" id="filter308">
            <feFlood flood-opacity="1" flood-color="rgb(0,0,0)" result="flood" id="feFlood298" />
            <feComposite in="SourceGraphic" in2="flood" operator="in" result="composite1" id="feComposite300" />
            <feGaussianBlur in="composite1" stdDeviation="5" result="blur" id="feGaussianBlur302" />
            <feOffset dx="0" dy="0" result="offset" id="feOffset304" />
            <feComposite in="SourceGraphic" in2="offset" operator="over" result="composite2" id="feComposite306" />
        </filter>
    </defs>
    <rect width="237.05299" height="66.400002" fill="#00000001" />
    <path d="m 29.3994,17.25217 0.3825,-1.8 H 42.4967 V 47.2186 H 26.2281 L 27.6457,45.374 H 40.5909 V 17.26191 Z"
        fill="#535353" id="box-r" />
    <path d="m 12.01452,45.3371 h 7.61042 l -0.70882,1.9553 H 10 V 15.38039 h 14.027 l -1.0445,1.9553 H 12.05183 Z"
        fill="#535353" id="box-l" />
    <path id="bolt"
        d="M 28.792969,9.6999998 14.998047,36.612109 25.949219,34.342578 17.125,56.7 37.919922,27.948047 25.548828,28.366016 Z"
        fill="#ff7f00" />
    <path
        d="m 47.6862,44.6957 v -7.0274 h 5.1647 V 38.896 H 49.115 v 1.5028 h 3.4396 v 1.2383 H 49.115 v 1.8097 h 3.9052 v 1.2489 z m 8.7813,0 v -7.0274 h 1.4711 v 5.7468 h 3.4819 v 1.2806 z m 8.4505,0 v -7.0274 h 5.1647 v 1.2277 h -3.7359 v 1.5028 h 3.4396 v 1.2383 h -3.4396 v 1.8097 h 3.9052 v 1.2489 z m 14.9726,-2.413 c -0.0776,0.4021 -0.2011,0.7655 -0.3704,1.09 -0.1694,0.3246 -0.3846,0.6033 -0.6456,0.8361 -0.254,0.2329 -0.5504,0.4128 -0.889,0.5398 -0.3387,0.127 -0.7126,0.1905 -1.1219,0.1905 -0.4586,0 -0.889,-0.0776 -1.2911,-0.2329 -0.3951,-0.1552 -0.7373,-0.388 -1.0266,-0.6985 -0.2893,-0.3104 -0.5186,-0.6914 -0.6879,-1.143 -0.1623,-0.4586 -0.2434,-0.9913 -0.2434,-1.598 0,-0.5927 0.074,-1.1254 0.2222,-1.5981 0.1552,-0.4798 0.3739,-0.882 0.6562,-1.2065 0.2822,-0.3316 0.6244,-0.5856 1.0266,-0.762 0.4092,-0.1764 0.8643,-0.2646 1.3652,-0.2646 0.4374,0 0.8326,0.067 1.1853,0.2011 0.3599,0.127 0.6668,0.3069 0.9208,0.5397 0.261,0.2258 0.4657,0.4939 0.6138,0.8044 0.1552,0.3104 0.2505,0.642 0.2858,0.9948 h -1.4711 c -0.0988,-0.4022 -0.2893,-0.7126 -0.5715,-0.9313 -0.2822,-0.2258 -0.5997,-0.3387 -0.9525,-0.3387 -0.6138,0 -1.0654,0.2222 -1.3547,0.6667 -0.2893,0.4375 -0.4339,1.0407 -0.4339,1.8098 0,0.7832 0.1411,1.3935 0.4233,1.8309 0.2893,0.4304 0.7197,0.6456 1.2912,0.6456 0.4374,0 0.7867,-0.1164 1.0478,-0.3493 0.2681,-0.2398 0.4515,-0.582 0.5503,-1.0265 z m 5.105,2.413 V 38.896 H 82.879 v -1.2277 h 5.715 v 1.2277 h -2.1273 v 5.7997 z m 8.5218,-5.8103 v 1.8733 h 1.8415 c 0.3951,0 0.6738,-0.0882 0.8361,-0.2646 0.1623,-0.1764 0.2434,-0.3987 0.2434,-0.6668 0,-0.2751 -0.0811,-0.5009 -0.2434,-0.6773 -0.1552,-0.1764 -0.4163,-0.2646 -0.7831,-0.2646 z m 2.667,5.8103 v -1.8098 c 0,-0.3387 -0.0776,-0.5785 -0.2328,-0.7197 -0.1552,-0.1481 -0.4445,-0.2222 -0.8678,-0.2222 h -1.5664 v 2.7517 h -1.4287 v -7.0274 h 3.5666 c 0.3245,0 0.6173,0.0529 0.8784,0.1588 0.2681,0.0988 0.4974,0.2399 0.6879,0.4233 0.1905,0.1764 0.3351,0.3916 0.4339,0.6456 0.1059,0.2469 0.1588,0.515 0.1588,0.8043 0,0.381 -0.0918,0.7197 -0.2752,1.016 -0.1764,0.2893 -0.4339,0.4939 -0.7726,0.6139 0.3105,0.0987 0.5292,0.2504 0.6562,0.455 0.134,0.2047 0.2011,0.5116 0.2011,0.9208 v 1.9897 z m 5.1713,0 v -7.0274 h 1.4711 v 7.0274 z m 11.3143,-2.413 c -0.078,0.4021 -0.202,0.7655 -0.371,1.09 -0.169,0.3246 -0.384,0.6033 -0.645,0.8361 -0.254,0.2329 -0.551,0.4128 -0.889,0.5398 -0.339,0.127 -0.713,0.1905 -1.1223,0.1905 -0.4586,0 -0.889,-0.0776 -1.2912,-0.2329 -0.3951,-0.1552 -0.7373,-0.388 -1.0265,-0.6985 -0.2893,-0.3104 -0.5186,-0.6914 -0.688,-1.143 -0.1622,-0.4586 -0.2434,-0.9913 -0.2434,-1.598 0,-0.5927 0.0741,-1.1254 0.2223,-1.5981 0.1552,-0.4798 0.3739,-0.882 0.6561,-1.2065 0.2823,-0.3316 0.6245,-0.5856 1.0266,-0.762 0.4093,-0.1764 0.8643,-0.2646 1.3653,-0.2646 0.4371,0 0.8321,0.067 1.1851,0.2011 0.36,0.127 0.667,0.3069 0.921,0.5397 0.261,0.2258 0.466,0.4939 0.614,0.8044 0.155,0.3104 0.25,0.642 0.286,0.9948 h -1.472 c -0.098,-0.4022 -0.289,-0.7126 -0.571,-0.9313 -0.282,-0.2258 -0.6,-0.3387 -0.9525,-0.3387 -0.6139,0 -1.0654,0.2222 -1.3547,0.6667 -0.2893,0.4375 -0.4339,1.0407 -0.4339,1.8098 0,0.7832 0.1411,1.3935 0.4233,1.8309 0.2893,0.4304 0.7197,0.6456 1.2912,0.6456 0.4376,0 0.7866,-0.1164 1.0476,-0.3493 0.268,-0.2398 0.452,-0.582 0.55,-1.0265 z m 6.105,-3.0375 h -0.011 l -0.9,2.794 h 1.789 z m 1.746,5.4505 -0.445,-1.45 h -2.593 l -0.497,1.45 h -1.556 l 2.509,-7.0274 h 1.703 l 2.477,7.0274 z m 5.07,0 v -7.0274 h 1.471 v 5.7468 h 3.482 v 1.2806 z m 8.451,1.1218 c 0.268,-0.0706 0.469,-0.1905 0.603,-0.3598 0.134,-0.1694 0.205,-0.4234 0.212,-0.762 h -0.815 v -1.4288 h 1.46 v 1.0795 c 0,0.2963 -0.025,0.5574 -0.074,0.7832 -0.049,0.2258 -0.13,0.4163 -0.243,0.5715 -0.113,0.1623 -0.265,0.2963 -0.455,0.4021 -0.184,0.1059 -0.413,0.187 -0.688,0.2435 z m 12.295,-4.0852 v 2.9634 h -1.471 v -7.0274 h 5.006 v 1.2277 h -3.535 v 1.5981 h 3.09 v 1.2382 z m 7.021,2.9634 v -7.0274 h 1.471 v 7.0274 z m 6.551,-5.8103 v 1.8733 h 1.841 c 0.395,0 0.674,-0.0882 0.836,-0.2646 0.163,-0.1764 0.244,-0.3987 0.244,-0.6668 0,-0.2751 -0.081,-0.5009 -0.244,-0.6773 -0.155,-0.1764 -0.416,-0.2646 -0.783,-0.2646 z m 2.667,5.8103 v -1.8098 c 0,-0.3387 -0.078,-0.5785 -0.233,-0.7197 -0.155,-0.1481 -0.444,-0.2222 -0.868,-0.2222 h -1.566 v 2.7517 h -1.429 v -7.0274 h 3.567 c 0.324,0 0.617,0.0529 0.878,0.1588 0.268,0.0988 0.498,0.2399 0.688,0.4233 0.191,0.1764 0.335,0.3916 0.434,0.6456 0.106,0.2469 0.159,0.515 0.159,0.8043 0,0.381 -0.092,0.7197 -0.275,1.016 -0.177,0.2893 -0.434,0.4939 -0.773,0.6139 0.31,0.0987 0.529,0.2504 0.656,0.455 0.134,0.2047 0.201,0.5116 0.201,0.9208 v 1.9897 z m 5.171,0 v -7.0274 h 5.165 v 1.2277 h -3.736 v 1.5028 h 3.439 v 1.2383 h -3.439 v 1.8097 h 3.905 v 1.2489 z m 17.996,-4.0323 h 1.323 v 1.8944 c 0,0.3599 -0.06,0.6879 -0.18,0.9843 -0.112,0.2893 -0.275,0.5397 -0.486,0.7514 -0.205,0.2046 -0.452,0.3634 -0.741,0.4762 -0.29,0.1129 -0.611,0.1694 -0.963,0.1694 -0.403,0 -0.759,-0.0565 -1.069,-0.1694 -0.311,-0.1128 -0.575,-0.2681 -0.794,-0.4656 -0.212,-0.1976 -0.374,-0.4304 -0.487,-0.6985 -0.113,-0.2681 -0.169,-0.5574 -0.169,-0.8679 0,-0.1622 0.021,-0.328 0.063,-0.4974 0.043,-0.1764 0.099,-0.3386 0.17,-0.4868 0.077,-0.1482 0.169,-0.2787 0.275,-0.3916 0.106,-0.1129 0.219,-0.1975 0.338,-0.254 -0.543,-0.2822 -0.814,-0.7726 -0.814,-1.4711 0,-0.2963 0.063,-0.5644 0.19,-0.8043 0.127,-0.2399 0.307,-0.4445 0.54,-0.6138 0.233,-0.1764 0.511,-0.3105 0.836,-0.4022 0.324,-0.0988 0.684,-0.1482 1.079,-0.1482 v 1.1536 c -0.479,0 -0.815,0.0776 -1.005,0.2328 -0.191,0.1482 -0.286,0.3952 -0.286,0.7409 0,0.2963 0.099,0.515 0.297,0.6561 0.197,0.1412 0.529,0.2117 0.994,0.2117 v 0.9948 c -0.423,0 -0.751,0.0882 -0.984,0.2646 -0.233,0.1694 -0.349,0.4339 -0.349,0.7938 0,0.1481 0.021,0.2893 0.063,0.4233 0.05,0.127 0.12,0.2399 0.212,0.3387 0.099,0.0988 0.219,0.1799 0.36,0.2434 0.148,0.0564 0.324,0.0847 0.529,0.0847 0.706,0 1.058,-0.4163 1.058,-1.2489 z m 13.326,2.8363 c 0.642,0 1.108,-0.1975 1.397,-0.5926 0.289,-0.4022 0.434,-1.0019 0.434,-1.7992 0,-0.3951 -0.036,-0.7338 -0.106,-1.016 -0.071,-0.2822 -0.187,-0.5115 -0.349,-0.6879 -0.156,-0.1835 -0.357,-0.314 -0.604,-0.3916 -0.247,-0.0847 -0.546,-0.127 -0.899,-0.127 h -1.09 v 4.6143 z m -2.646,1.196 v -7.0274 h 2.72 c 0.473,0 0.91,0.0812 1.312,0.2434 0.402,0.1553 0.745,0.381 1.027,0.6774 0.289,0.2963 0.515,0.6561 0.677,1.0795 0.162,0.4233 0.244,0.9031 0.244,1.4393 0,0.5362 -0.075,1.0266 -0.223,1.4711 -0.141,0.4374 -0.345,0.8149 -0.614,1.1324 -0.268,0.3105 -0.589,0.5539 -0.963,0.7303 -0.374,0.1693 -0.786,0.254 -1.238,0.254 z m 11.945,-5.4505 h -0.011 l -0.899,2.794 h 1.788 z m 1.746,5.4505 -0.444,-1.45 h -2.593 l -0.498,1.45 h -1.555 l 2.508,-7.0274 h 1.704 l 2.476,7.0274 z m 5.198,0 V 38.896 h -2.117 v -1.2277 h 5.715 v 1.2277 h -2.127 v 5.7997 z m 8.396,-5.4505 h -0.01 l -0.9,2.794 h 1.789 z m 1.747,5.4505 -0.445,-1.45 h -2.593 l -0.497,1.45 h -1.556 l 2.508,-7.0274 h 1.704 l 2.477,7.0274 z"
        fill="#535353" id="tagline" />
    <g id="company-name">
        <path
            d="m 55.0863,16.54859 h 3.3835 V 28.3543 c 0,1.4767 -0.4463,2.6695 -1.3388,3.5782 -0.8925,0.8925 -2.2151,1.3388 -3.9677,1.3388 -1.5741,0 -2.7993,-0.4138 -3.6756,-1.2414 -0.8763,-0.8439 -1.3144,-2.1015 -1.3144,-3.773 v -1.6552 h 3.067 v 1.4848 c 0,0.8277 0.1461,1.4443 0.4382,1.85 0.2921,0.3895 0.787,0.5842 1.4848,0.5842 0.779,0 1.2901,-0.1866 1.5336,-0.5599 0.2596,-0.3894 0.3894,-1.0304 0.3894,-1.9229 z m 4.1276,16.16291 v -3.2862 h 3.3835 v 3.2862 z m 14.2283,0 v -7.2539 h -6.3045 v 7.2539 H 63.7542 V 16.54859 h 3.3835 V 22.634 h 6.3045 v -6.08541 h 3.4079 V 32.7115 Z m 4.5985,0 v -3.2862 h 3.3835 v 3.2862 z m 4.5403,0 V 16.54859 h 11.8787 v 2.82363 h -8.5926 v 3.45648 h 7.9111 v 2.848 h -7.9111 v 4.1624 h 8.9821 v 2.8724 z"
            id="company-name-jhe" style="fill:#ff7f00" />
        <path
            d="M 101.2963,32.7 V 16.53713 h 11.8787 v 2.82363 h -8.5926 v 3.45654 h 7.9106 v 2.848 h -7.9106 v 4.1624 h 8.9826 V 32.7 Z m 12.9557,0 V 16.53713 h 3.383 V 29.7547 h 8.009 V 32.7 Z m 12.194,0 V 16.53713 h 11.879 v 2.82363 h -8.593 v 3.45654 h 7.911 v 2.848 h -7.911 v 4.1624 h 8.982 V 32.7 Z m 27.195,-5.5499 c -0.178,0.925 -0.462,1.7607 -0.852,2.5072 -0.389,0.7465 -0.884,1.3875 -1.484,1.923 -0.585,0.5355 -1.266,0.9493 -2.045,1.2414 -0.779,0.2921 -1.639,0.4382 -2.58,0.4382 -1.055,0 -2.045,-0.1786 -2.97,-0.5356 -0.909,-0.357 -1.696,-0.8925 -2.361,-1.6065 -0.666,-0.714 -1.193,-1.5903 -1.582,-2.6289 -0.374,-1.0548 -0.56,-2.28 -0.56,-3.6756 0,-1.3631 0.17,-2.5883 0.511,-3.6756 0.357,-1.1035 0.86,-2.02847 1.509,-2.77495 0.649,-0.7627 1.436,-1.3469 2.361,-1.7526 0.941,-0.40569 1.988,-0.60854 3.14,-0.60854 1.006,0 1.915,0.15416 2.727,0.46249 0.827,0.2921 1.533,0.70591 2.117,1.24143 0.601,0.51929 1.071,1.13594 1.412,1.84996 0.357,0.71401 0.576,1.47671 0.657,2.28811 h -3.383 c -0.227,-0.925 -0.665,-1.639 -1.315,-2.1421 -0.649,-0.51925 -1.379,-0.77889 -2.19,-0.77889 -1.412,0 -2.451,0.51117 -3.116,1.53349 -0.665,1.0062 -0.998,2.3936 -0.998,4.1625 0,1.8012 0.324,3.2049 0.974,4.2111 0.665,0.9899 1.655,1.4848 2.969,1.4848 1.006,0 1.81,-0.2677 2.41,-0.8033 0.617,-0.5517 1.039,-1.3388 1.266,-2.3611 z m 4.5,5.5499 V 19.36076 h -4.868 v -2.82363 h 13.145 v 2.82363 h -4.893 V 32.7 Z M 170.5,19.33642 v 4.30848 h 4.235 c 0.909,0 1.55,-0.2029 1.923,-0.6085 0.374,-0.4057 0.56,-0.9169 0.56,-1.5336 0,-0.6329 -0.186,-1.1521 -0.56,-1.5578 -0.357,-0.40573 -0.957,-0.60858 -1.801,-0.60858 z M 176.634,32.7 v -4.1624 c 0,-0.779 -0.179,-1.3307 -0.536,-1.6553 -0.357,-0.3407 -1.022,-0.5111 -1.996,-0.5111 H 170.5 V 32.7 h -3.286 V 16.53713 h 8.203 c 0.746,0 1.42,0.1217 2.02,0.36512 0.617,0.22719 1.144,0.55175 1.582,0.97367 0.439,0.40569 0.771,0.90064 0.998,1.48484 0.244,0.56794 0.366,1.18464 0.366,1.84994 0,0.8763 -0.211,1.6553 -0.633,2.3368 -0.406,0.6654 -0.998,1.136 -1.777,1.4118 0.714,0.2272 1.217,0.5761 1.509,1.0467 0.308,0.4706 0.462,1.1765 0.462,2.1178 V 32.7 Z m 4.652,0 V 16.53713 h 3.384 V 32.7 Z m 18.78,-5.5499 c -0.178,0.925 -0.462,1.7607 -0.852,2.5072 -0.389,0.7465 -0.884,1.3875 -1.484,1.923 -0.585,0.5355 -1.266,0.9493 -2.045,1.2414 -0.779,0.2921 -1.639,0.4382 -2.58,0.4382 -1.055,0 -2.045,-0.1786 -2.97,-0.5356 -0.909,-0.357 -1.696,-0.8925 -2.361,-1.6065 -0.665,-0.714 -1.193,-1.5903 -1.582,-2.6289 -0.374,-1.0548 -0.56,-2.28 -0.56,-3.6756 0,-1.3631 0.17,-2.5883 0.511,-3.6756 0.357,-1.1035 0.86,-2.02847 1.509,-2.77495 0.649,-0.7627 1.436,-1.3469 2.361,-1.7526 0.942,-0.40569 1.988,-0.60854 3.14,-0.60854 1.007,0 1.915,0.15416 2.727,0.46249 0.827,0.2921 1.533,0.70591 2.117,1.24143 0.601,0.51929 1.071,1.13594 1.412,1.84996 0.357,0.71401 0.576,1.47671 0.657,2.28811 h -3.383 c -0.227,-0.925 -0.665,-1.639 -1.315,-2.1421 -0.649,-0.51925 -1.379,-0.77889 -2.19,-0.77889 -1.412,0 -2.451,0.51117 -3.116,1.53349 -0.665,1.0062 -0.998,2.3936 -0.998,4.1625 0,1.8012 0.325,3.2049 0.974,4.2111 0.665,0.9899 1.655,1.4848 2.969,1.4848 1.006,0 1.81,-0.2677 2.41,-0.8033 0.617,-0.5517 1.039,-1.3388 1.266,-2.3611 z m 6.801,-6.9861 h -0.025 l -2.069,6.4262 h 4.114 z m 4.016,12.536 -1.022,-3.3348 h -5.964 L 202.753,32.7 h -3.578 l 5.769,-16.16287 h 3.919 L 214.558,32.7 Z m 4.42,0 V 16.53713 h 3.383 V 29.7547 h 8.009 V 32.7 Z"
            id="company-name-electrical" style="fill:#535353" />
    </g>
    <path id="bolt-glow"
        d="M 28.792969,9.6999998 14.998047,36.612109 25.949219,34.342578 17.125,56.7 37.919922,27.948047 25.548828,28.366016 Z"
        fill="#ff7f00" style="filter:url(#filter308);" />
    <script type="text/javascript">
        <![CDATA[
        const boltGlow = document.querySelector('#bolt-glow');
const boxL = document.querySelector('#box-l');
const boxR = document.querySelector('#box-r');
const logoTxt = document.querySelector('#company-name');
const tagline = document.querySelector('#tagline');
const rightMoveOnHover = [boxR, logoTxt, tagline];
boltGlow.classList.add('ani-fadeOut');
boxL.classList.add('ani-unleft');
boxR.classList.add('ani-unright');
logoTxt.classList.add('ani-fadeInunright');
tagline.classList.add('ani-fadeInunright');
setTimeout(() => {
    logoTxt.classList.remove('ani-fadeInunright');
    tagline.classList.remove('ani-fadeInunright');
}, 1000);
let animating = false;
console.log('Hi from SVG!');
document.addEventListener('mouseenter', () => {
    if (animating)
        return;
    animating = true;
    console.log('mouseenter');
    boltGlow.classList.remove('ani-fadeOut');
    boltGlow.style.opacity = "0";
    requestAnimationFrame(() => {
        requestAnimationFrame(() => {
            boltGlow.classList.add('ani-fadeIn');
        });
    });
    boxL.classList.remove('ani-unleft');
    boxL.style.transform = 'none';
    requestAnimationFrame(() => {
        requestAnimationFrame(() => {
            boxL.classList.add('ani-left');
        });
    });
    for (let el of rightMoveOnHover) {
        el.classList.remove('ani-unright');
        el.style.transform = 'none';
        requestAnimationFrame(() => {
            requestAnimationFrame(() => {
                el.classList.add('ani-right');
            });
        });
    }
    setTimeout(() => animating = false, 1000);
});
document.addEventListener('mouseleave', () => {
    console.log('mouseleave');
    boltGlow.classList.remove('ani-fadeIn');
    boltGlow.style.opacity = "1";
    requestAnimationFrame(() => {
        requestAnimationFrame(() => {
            boltGlow.classList.add('ani-fadeOut');
        });
    });
    boxL.classList.remove('ani-left');
    boxL.style.transform = 'translateX(-2%)';
    requestAnimationFrame(() => {
        requestAnimationFrame(() => {
            boxL.classList.add('ani-unleft');
        });
    });
    for (let el of rightMoveOnHover) {
        el.classList.remove('ani-right');
        el.style.transform = 'translateX(2%)';
        requestAnimationFrame(() => {
            requestAnimationFrame(() => {
                el.classList.add('ani-unright');
            });
        });
    }
});

const clickHandler = e => {
    parent.svgClickHandler(e);
}
    document.addEventListener('click', clickHandler);


        ]]>
    </script>
</svg>